<?xml version="1.0" encoding="utf-8"?>
<!-- Generator: Adobe Illustrator 25.2.1, SVG Export Plug-In . SVG Version: 6.00 Build 0)  -->
<svg version="1.1" id="Layer_1" xmlns="http://www.w3.org/2000/svg" xmlns:xlink="http://www.w3.org/1999/xlink" x="0px" y="0px"
	 viewBox="0 0 40.7 50.5" style="enable-background:new 0 0 40.7 50.5;" xml:space="preserve">
<style type="text/css">
	.st0{fill:#FFFFFF;}
</style>
<g>
	<path class="st0" d="M20.3,5.3L0,28.1h5.1v17.1h12.7V33.8h5.1v11.4h12.8V28.1h5.1L20.3,5.3z M20.3,29.6c-3.5,0-6.4-2.9-6.4-6.4
		c0-3.5,2.9-6.4,6.4-6.4c3.5,0,6.4,2.9,6.4,6.4C26.7,26.7,23.9,29.6,20.3,29.6z"/>
	<path class="st0" d="M20.1,21c0.4,0,0.8,0.2,1,0.6c0.2,0.4,0.6,0.6,1.1,0.4c0.4-0.2,0.6-0.6,0.4-1.1c-0.3-0.6-0.7-1.1-1.3-1.3v-0.4
		c0-0.4-0.4-0.8-0.8-0.8c-0.4,0-0.8,0.4-0.8,0.8v0.2c-0.8,0.2-1.4,0.8-1.6,1.7c-0.2,0.9,0.3,1.9,1.1,2.3l1.5,0.8
		c0.3,0.2,0.3,0.5,0.3,0.6c0,0.1-0.1,0.4-0.4,0.4l-0.1,0c-0.4,0-0.8-0.2-1-0.6c-0.2-0.4-0.6-0.6-1.1-0.4c-0.4,0.2-0.6,0.6-0.4,1.1
		c0.3,0.7,0.9,1.2,1.6,1.4v0.2c0,0.4,0.4,0.8,0.8,0.8c0.4,0,0.8-0.4,0.8-0.8v-0.3c0.7-0.3,1.2-0.9,1.3-1.6c0.2-0.9-0.3-1.8-1.1-2.3
		L19.9,22c-0.3-0.2-0.3-0.5-0.3-0.6C19.7,21.3,19.7,21,20.1,21z"/>
</g>
</svg>
