<?xml version="1.0" encoding="utf-8"?>
<!-- Generator: Adobe Illustrator 25.2.1, SVG Export Plug-In . SVG Version: 6.00 Build 0)  -->
<svg version="1.1" id="Layer_1" xmlns="http://www.w3.org/2000/svg" xmlns:xlink="http://www.w3.org/1999/xlink" x="0px" y="0px"
	 viewBox="0 0 40.7 50.5" style="enable-background:new 0 0 40.7 50.5;" xml:space="preserve">
<style type="text/css">
	.st0{fill:#FFFFFF;}
</style>
<path class="st0" d="M40,26.3c-0.5-1.4-1.5-2.6-2.8-3.2c-0.6-0.3-1.3-0.1-1.6,0.5c-0.3,0.6-0.1,1.3,0.5,1.6c0.8,0.4,1.3,1,1.6,1.8
	c0.3,0.8,0.2,1.7-0.2,2.4c-0.3,0.5-0.7,0.9-1.3,1.1c-1.7-6.2-8.3-9.4-16.2-9.4c-2.6,0-5.1,0.4-7.3,1.1c-2.2-1-4.7-1.2-7.1-0.4
	C5,22.1,4.7,22.8,5,23.3L6.5,26c-1.6,1.7-2.7,3.9-3,6.5l-1.4,0.2c-0.9,0.2-1.6,1-1.6,1.9V38c0,0.6,0.2,1.1,0.6,1.5l2.2,1.9l0,0
	c1.3,1.3,3.1,2.3,5,3.1v4.2c0,0.5,0.4,1,1,1h5.1c0.4,0,0.8-0.3,0.9-0.7l0.6-2.4c1.4,0.2,2.7,0.3,4.1,0.3c1.4,0,2.8-0.1,4.1-0.3
	l0.6,2.5c0.1,0.4,0.5,0.7,0.9,0.7h5.1c0.5,0,1-0.4,1-1v-5.1c3-2.1,4.9-5.3,4.9-9.5c0-0.3,0-0.6-0.1-0.9c0.1,0,0.2-0.1,0.4-0.1
	c1.2-0.4,2.2-1.2,2.7-2.4C40.3,29.3,40.4,27.8,40,26.3z M8.8,33c-0.8,0-1.5-0.7-1.5-1.5c0-0.8,0.7-1.5,1.5-1.5s1.5,0.7,1.5,1.5
	C10.2,32.3,9.6,33,8.8,33z M26.6,26.4c-0.2,0.5-0.6,0.8-1.2,0.8c-0.1,0-0.3,0-0.4-0.1c-1.8-0.6-3.9-0.8-6.2-0.6c-1,0.1-2,0.2-3,0.5
	c-0.7,0.2-1.3-0.2-1.5-0.9c-0.2-0.7,0.2-1.3,0.9-1.5c1.1-0.3,2.2-0.4,3.4-0.5c2.6-0.2,5,0.1,7.1,0.7C26.4,25.1,26.8,25.7,26.6,26.4z
	"/>
<path class="st0" d="M19.8,0.9c-4.7,0-8.6,3.9-8.6,8.6c0,4.7,3.9,8.6,8.6,8.6c4.7,0,8.6-3.9,8.6-8.6C28.4,4.7,24.6,0.9,19.8,0.9z
	 M19.3,7.8l2,1c1.2,0.6,1.8,1.9,1.6,3.2c-0.2,1-0.8,1.8-1.7,2.2v0.3c0,0.7-0.5,1.2-1.2,1.2c-0.7,0-1.2-0.5-1.2-1.2v-0.2
	c-1-0.3-1.8-1-2.2-2c-0.3-0.6,0-1.3,0.6-1.6c0.6-0.3,1.3,0,1.6,0.6c0.2,0.5,0.7,0.7,1.2,0.7c0.4-0.1,0.5-0.3,0.5-0.5
	c0-0.1,0-0.5-0.3-0.6l-2-1c-1.2-0.6-1.8-1.9-1.6-3.3c0.2-1.2,1-2,2.1-2.3V4.2C18.8,3.6,19.3,3,20,3c0.7,0,1.2,0.5,1.2,1.2v0.4
	C22,5,22.6,5.7,23,6.5c0.3,0.6,0,1.3-0.6,1.6c-0.6,0.3-1.3,0-1.6-0.6C20.5,7,20,6.7,19.5,6.7c-0.4,0-0.5,0.3-0.5,0.5
	C19,7.3,19,7.7,19.3,7.8z"/>
</svg>
